<svg xmlns="http://www.w3.org/2000/svg" viewBox="0 0 256 256" fill="none">
  <rect width="256" height="256" rx="64" fill="#081120"/>
  <rect x="28" y="28" width="200" height="200" rx="44" fill="url(#a)"/>
  <path d="M84 78h88c5.5 0 10 4.5 10 10v80c0 5.5-4.5 10-10 10H84c-5.5 0-10-4.5-10-10V88c0-5.5 4.5-10 10-10Z" fill="#F6FBFF" fill-opacity=".93"/>
  <path d="M98 107h60" stroke="#0D1B31" stroke-width="12" stroke-linecap="round"/>
  <path d="M98 132h42" stroke="#5FB4FF" stroke-width="12" stroke-linecap="round"/>
  <path d="M98 157h72" stroke="#8AD5FF" stroke-width="12" stroke-linecap="round"/>
  <circle cx="177" cy="101" r="16" fill="#0D1B31"/>
  <path d="M170 101h14" stroke="#F6FBFF" stroke-width="4" stroke-linecap="round"/>
  <path d="M177 94v14" stroke="#F6FBFF" stroke-width="4" stroke-linecap="round"/>
  <defs>
    <linearGradient id="a" x1="39" x2="214" y1="43" y2="217" gradientUnits="userSpaceOnUse">
      <stop stop-color="#4A8CFF"/>
      <stop offset="1" stop-color="#76D7FF"/>
    </linearGradient>
  </defs>
</svg>
